<svg width="49" height="50" viewBox="0 0 49 50" fill="none" xmlns="http://www.w3.org/2000/svg">
<rect x="0.5" y="1" width="48" height="48" rx="11.5" stroke="white"/>
<path fill-rule="evenodd" clip-rule="evenodd" d="M18.2382 14.7373C18.3133 14.6621 18.4024 14.6024 18.5005 14.5617C18.5986 14.521 18.7038 14.5 18.81 14.5C18.9162 14.5 19.0214 14.521 19.1195 14.5617C19.2177 14.6024 19.3068 14.6621 19.3818 14.7373L29.073 24.4284C29.1482 24.5035 29.2079 24.5926 29.2486 24.6907C29.2893 24.7888 29.3102 24.894 29.3102 25.0002C29.3102 25.1064 29.2893 25.2116 29.2486 25.3097C29.2079 25.4079 29.1482 25.497 29.073 25.572L19.3818 35.2632C19.2302 35.4148 19.0245 35.5 18.81 35.5C18.5956 35.5 18.3899 35.4148 18.2382 35.2632C18.0866 35.1115 18.0014 34.9058 18.0014 34.6914C18.0014 34.4769 18.0866 34.2712 18.2382 34.1196L27.3593 25.0002L18.2382 15.8808C18.163 15.8058 18.1034 15.7167 18.0626 15.6186C18.0219 15.5205 18.001 15.4153 18.001 15.309C18.001 15.2028 18.0219 15.0976 18.0626 14.9995C18.1034 14.9014 18.163 14.8123 18.2382 14.7373Z" fill="white"/>
</svg>
