<svg width="49" height="50" viewBox="0 0 49 50" fill="none" xmlns="http://www.w3.org/2000/svg">
<rect x="0.5" y="1" width="48" height="48" rx="11.5" stroke="white"/>
<path fill-rule="evenodd" clip-rule="evenodd" d="M29.0713 14.7373C28.9963 14.6621 28.9072 14.6024 28.8091 14.5617C28.711 14.521 28.6058 14.5 28.4996 14.5C28.3933 14.5 28.2881 14.521 28.19 14.5617C28.0919 14.6024 28.0028 14.6621 27.9278 14.7373L18.2366 24.4284C18.1614 24.5035 18.1017 24.5926 18.061 24.6907C18.0203 24.7888 17.9993 24.894 17.9993 25.0002C17.9993 25.1064 18.0203 25.2116 18.061 25.3097C18.1017 25.4079 18.1614 25.497 18.2366 25.572L27.9278 35.2632C28.0794 35.4148 28.2851 35.5 28.4996 35.5C28.714 35.5 28.9197 35.4148 29.0713 35.2632C29.223 35.1115 29.3082 34.9058 29.3082 34.6914C29.3082 34.4769 29.223 34.2712 29.0713 34.1196L19.9503 25.0002L29.0713 15.8808C29.1465 15.8058 29.2062 15.7167 29.2469 15.6186C29.2876 15.5205 29.3086 15.4153 29.3086 15.309C29.3086 15.2028 29.2876 15.0976 29.2469 14.9995C29.2062 14.9014 29.1465 14.8123 29.0713 14.7373Z" fill="white"/>
</svg>
