<svg xmlns="http://www.w3.org/2000/svg" style="display: none;">
  <symbol id="swipe-back" viewBox="0 0 30 30">
    <rect x="-0.25" y="0.25" width="29.5" height="29.5" rx="9.75"
      transform="matrix(-1 0 0 1 29.5 0)" stroke="white" stroke-width="0.5" fill="none"/>
    <path fill-rule="evenodd" clip-rule="evenodd"
      d="M17.5148 9.73517C17.48 9.70025 17.4386 9.67254 17.3931 9.65364C17.3475 9.63473 17.2987 9.625 17.2493 9.625C17.2 9.625 17.1512 9.63473 17.1056 9.65364C17.06 9.67254 17.0187 9.70025 16.9838 9.73517L12.4838 14.2352C12.4489 14.27 12.4212 14.3114 12.4023 14.3569C12.3834 14.4025 12.3737 14.4513 12.3737 14.5007C12.3737 14.55 12.3834 14.5988 12.4023 14.6444C12.4212 14.69 12.4489 14.7313 12.4838 14.7662L16.9838 19.2662C17.0542 19.3366 17.1497 19.3761 17.2493 19.3761C17.3489 19.3761 17.4444 19.3366 17.5148 19.2662C17.5852 19.1958 17.6248 19.1002 17.6248 19.0007C17.6248 18.9011 17.5852 18.8056 17.5148 18.7352L13.2796 14.5007L17.5148 10.2662C17.5498 10.2313 17.5775 10.19 17.5964 10.1444C17.6153 10.0988 17.625 10.05 17.625 10.0007C17.625 9.95134 17.6153 9.9025 17.5964 9.85695C17.5775 9.81139 17.5498 9.77 17.5148 9.73517Z"
      fill="white"/>
  </symbol>
</svg>