<svg xmlns="http://www.w3.org/2000/svg" style="display: none;">
  <symbol id="swipe-forward" viewBox="0 0 30 30">
    <rect
      x="0.25"
      y="0.25"
      width="29.5"
      height="29.5"
      rx="9.75"
      stroke="white"
      stroke-width="0.5"
      fill="none"
    />
    <path
      fill-rule="evenodd"
      clip-rule="evenodd"
      d="M12.4852 9.73517C12.52 9.70025 12.5614 9.67254 12.6069 9.65364C12.6525 9.63473 12.7013 9.625 12.7507 9.625C12.8 9.625 12.8488 9.63473 12.8944 9.65364C12.94 9.67254 12.9813 9.70025 13.0162 9.73517L17.5162 14.2352C17.5511 14.27 17.5788 14.3114 17.5977 14.3569C17.6166 14.4025 17.6263 14.4513 17.6263 14.5007C17.6263 14.55 17.6166 14.5988 17.5977 14.6444C17.5788 14.69 17.5511 14.7313 17.5162 14.7662L13.0162 19.2662C12.9458 19.3366 12.8503 19.3761 12.7507 19.3761C12.6511 19.3761 12.5556 19.3366 12.4852 19.2662C12.4148 19.1958 12.3752 19.1002 12.3752 19.0007C12.3752 18.9011 12.4148 18.8056 12.4852 18.7352L16.7204 14.5007L12.4852 10.2662C12.4502 10.2313 12.4225 10.19 12.4036 10.1444C12.3847 10.0988 12.375 10.05 12.375 10.0007C12.375 9.95134 12.3847 9.9025 12.4036 9.85695C12.4225 9.81139 12.4502 9.77 12.4852 9.73517Z"
      fill="white"
    />
  </symbol>
</svg>
